<svg id="visual" viewBox="0" width="960" height="540"
  xmlns="http://www.w3.org/2000/svg"
  xmlns:xlink="http://www.w3.org/1999/xlink" version="1.1">
  <rect width="960" height="540" fill="transparent"></rect>
  <g>
    <g transform="translate(564 134)">
      <path d="M0 -64.4L55.7 -32.2L55.7 32.2L0 64.4L-55.7 32.2L-55.7 -32.2Z" fill="#0d47a1"></path>
    </g>
    <g transform="translate(194 34)">
      <path d="M0 -45L39 -22.5L39 22.5L0 45L-39 22.5L-39 -22.5Z" fill="#0d47a1"></path>
    </g>
    <g transform="translate(216 406)">
      <path d="M0 -47L40.7 -23.5L40.7 23.5L0 47L-40.7 23.5L-40.7 -23.5Z" fill="#0d47a1"></path>
    </g>
    <g transform="translate(53 361)">
      <path d="M0 -52L45 -26L45 26L0 52L-45 26L-45 -26Z" fill="#0d47a1"></path>
    </g>
    <g transform="translate(612 426)">
      <path d="M0 -24L20.8 -12L20.8 12L0 24L-20.8 12L-20.8 -12Z" fill="#0d47a1"></path>
    </g>
    <g transform="translate(750 302)">
      <path d="M0 -61L52.8 -30.5L52.8 30.5L0 61L-52.8 30.5L-52.8 -30.5Z" fill="#0d47a1"></path>
    </g>
    <g transform="translate(887 444)">
      <path d="M0 -62L53.7 -31L53.7 31L0 62L-53.7 31L-53.7 -31Z" fill="#0d47a1"></path>
    </g>
    <g transform="translate(358 173)">
      <path d="M0 -28L24.2 -14L24.2 14L0 28L-24.2 14L-24.2 -14Z" fill="#0d47a1"></path>
    </g>
    <g transform="translate(66 120)">
      <path d="M0 -51L44.2 -25.5L44.2 25.5L0 51L-44.2 25.5L-44.2 -25.5Z" fill="#0d47a1"></path>
    </g>
  </g>
</svg>