<svg id="visual" viewBox="0 0 900 600" width="900" height="600" xmlns="http://www.w3.org/2000/svg" xmlns:xlink="http://www.w3.org/1999/xlink" version="1.1"><rect x="0" y="0" width="900" height="600" fill="#FFF"></rect><defs><linearGradient id="grad1_0" x1="33.3%" y1="100%" x2="100%" y2="0%"><stop offset="20%" stop-color="#424242" stop-opacity="1"></stop><stop offset="80%" stop-color="#424242" stop-opacity="1"></stop></linearGradient></defs><defs><linearGradient id="grad1_1" x1="33.3%" y1="100%" x2="100%" y2="0%"><stop offset="20%" stop-color="#424242" stop-opacity="1"></stop><stop offset="80%" stop-color="#ffffff" stop-opacity="1"></stop></linearGradient></defs><defs><linearGradient id="grad2_0" x1="0%" y1="100%" x2="66.7%" y2="0%"><stop offset="20%" stop-color="#424242" stop-opacity="1"></stop><stop offset="80%" stop-color="#424242" stop-opacity="1"></stop></linearGradient></defs><defs><linearGradient id="grad2_1" x1="0%" y1="100%" x2="66.7%" y2="0%"><stop offset="20%" stop-color="#ffffff" stop-opacity="1"></stop><stop offset="80%" stop-color="#424242" stop-opacity="1"></stop></linearGradient></defs><g transform="translate(900, 600)"><path d="M-432.7 0C-402 -39.3 -371.4 -78.5 -351.9 -114.3C-332.3 -150.1 -323.9 -182.5 -313.1 -227.5C-302.3 -272.5 -289.2 -330.1 -254.3 -350C-219.4 -369.9 -162.8 -352 -116.8 -359.5C-70.8 -367 -35.4 -399.8 0 -432.7L0 0Z" fill="#9b9b9b"></path><path d="M-216.3 0C-201 -19.6 -185.7 -39.3 -175.9 -57.2C-166.2 -75.1 -161.9 -91.2 -156.5 -113.7C-151.1 -136.2 -144.6 -165.1 -127.2 -175C-109.7 -185 -81.4 -176 -58.4 -179.7C-35.4 -183.5 -17.7 -199.9 0 -216.3L0 0Z" fill="#424242"></path></g><g transform="translate(0, 0)"><path d="M432.7 0C421.6 42.5 410.5 85.1 399.4 129.8C388.4 174.5 377.4 221.4 350 254.3C322.6 287.2 278.8 306.2 241 331.7C203.2 357.2 171.4 389.1 132.3 407.1C93.1 425 46.5 428.8 0 432.7L0 0Z" fill="#9b9b9b"></path><path d="M216.3 0C210.8 21.3 205.2 42.5 199.7 64.9C194.2 87.2 188.7 110.7 175 127.2C161.3 143.6 139.4 153.1 120.5 165.8C101.6 178.6 85.7 194.6 66.1 203.5C46.5 212.5 23.3 214.4 0 216.3L0 0Z" fill="#424242"></path></g></svg>