<svg id="visual" viewBox="0 0 900 600" width="900" height="600" xmlns="http://www.w3.org/2000/svg" xmlns:xlink="http://www.w3.org/1999/xlink" version="1.1"><rect x="0" y="0" width="900" height="600" fill="#FFF"></rect><defs><linearGradient id="grad1_0" x1="33.3%" y1="0%" x2="100%" y2="100%"><stop offset="20%" stop-color="#424242" stop-opacity="1"></stop><stop offset="80%" stop-color="#424242" stop-opacity="1"></stop></linearGradient></defs><defs><linearGradient id="grad1_1" x1="33.3%" y1="0%" x2="100%" y2="100%"><stop offset="20%" stop-color="#424242" stop-opacity="1"></stop><stop offset="80%" stop-color="#ffffff" stop-opacity="1"></stop></linearGradient></defs><defs><linearGradient id="grad2_0" x1="0%" y1="0%" x2="66.7%" y2="100%"><stop offset="20%" stop-color="#424242" stop-opacity="1"></stop><stop offset="80%" stop-color="#424242" stop-opacity="1"></stop></linearGradient></defs><defs><linearGradient id="grad2_1" x1="0%" y1="0%" x2="66.7%" y2="100%"><stop offset="20%" stop-color="#ffffff" stop-opacity="1"></stop><stop offset="80%" stop-color="#424242" stop-opacity="1"></stop></linearGradient></defs><g transform="translate(900, 0)"><path d="M0 432.7C-39.3 402 -78.5 371.4 -114.3 351.9C-150.1 332.3 -182.5 323.9 -227.5 313.1C-272.5 302.3 -330.1 289.2 -350 254.3C-369.9 219.4 -352 162.8 -359.5 116.8C-367 70.8 -399.8 35.4 -432.7 0L0 0Z" fill="#9b9b9b"></path><path d="M0 216.3C-19.6 201 -39.3 185.7 -57.2 175.9C-75.1 166.2 -91.2 161.9 -113.7 156.5C-136.2 151.1 -165.1 144.6 -175 127.2C-185 109.7 -176 81.4 -179.7 58.4C-183.5 35.4 -199.9 17.7 -216.3 0L0 0Z" fill="#424242"></path></g><g transform="translate(0, 600)"><path d="M0 -432.7C42.5 -421.6 85.1 -410.5 129.8 -399.4C174.5 -388.4 221.4 -377.4 254.3 -350C287.2 -322.6 306.2 -278.8 331.7 -241C357.2 -203.2 389.1 -171.4 407.1 -132.3C425 -93.1 428.8 -46.5 432.7 0L0 0Z" fill="#9b9b9b"></path><path d="M0 -216.3C21.3 -210.8 42.5 -205.2 64.9 -199.7C87.2 -194.2 110.7 -188.7 127.2 -175C143.6 -161.3 153.1 -139.4 165.8 -120.5C178.6 -101.6 194.6 -85.7 203.5 -66.1C212.5 -46.5 214.4 -23.3 216.3 0L0 0Z" fill="#424242"></path></g></svg>