<svg xmlns="http://www.w3.org/2000/svg" viewBox="0 0 480.45 391.48"><defs><style>.cls-1{fill:#1a4a9a;}.cls-2{fill:#ea5a1d;}.cls-3{fill:#eb5d20;}.cls-4{fill:#1d4c9c;}.cls-5{fill:#1e4c9c;}.cls-6{fill:#eb5c1f;}.cls-7{fill:#1c4b9b;}.cls-8{fill:#224e9d;}</style></defs><g id="Capa_2" data-name="Capa 2"><g id="Capa_1-2" data-name="Capa 1"><path class="cls-1" d="M334.55,94.63l32.33,32.27L239.73,254.09,112.52,126.88l32.25-32.16,94.81,95Z"/><path class="cls-2" d="M161.83,78l78-78L318,78.21l-78,77.93Zm77.8-57.51L181.48,78.86c19.46,19.42,39,38.93,58.15,58L297.77,78.9C278.53,59.57,259.09,40,239.63,20.49Z"/><path class="cls-3" d="M99.9,390.68V306.51c8.76.4,17.45.15,25.93,1.37,7.63,1.1,12.34,7.82,12.51,16.92.31,16.07.41,32.17,0,48.24-.31,11.52-7.26,17.58-18.81,17.64C113,390.71,106.58,390.68,99.9,390.68Zm9.41-8.57h7.89c8.94,0,11.92-3,12-12,0-7.72,0-15.45,0-23.17,0-7.21.08-14.41-.11-21.61-.14-5.63-3-9.21-7.9-9.66-3.89-.35-7.85-.07-11.87-.07Z"/><path class="cls-4" d="M324.43,307.1h9.37v83.34h-9.18V353.2H304.1v37.29h-9.33V307.08h9.11v37.34h20.55Z"/><path class="cls-3" d="M87.17,348.67c0,8.86.59,17.77-.15,26.57-.92,10.85-8.1,16.42-19.2,16.23-10.79-.18-17.91-6.16-18.27-16.89-.57-16.68-.26-33.38-.27-50.07a19.23,19.23,0,0,1,.71-4.62c2.39-9.68,9-14.25,19.77-13.78,9.59.41,16.43,6.08,17.19,15.68.71,8.91.15,17.92.15,26.88Zm-28.85,0c0,5.85,0,11.7,0,17.55a59,59,0,0,0,.45,8.42c.88,5.64,4.18,8.41,9.52,8.4s8.49-2.71,9.5-8.41a27.11,27.11,0,0,0,.41-4.67q0-21.15,0-42.3a28.42,28.42,0,0,0-.56-5.59c-1-5-4.12-7.35-9.36-7.35s-8.36,2.44-9.38,7.37a29.12,29.12,0,0,0-.57,5.59C58.28,334.68,58.32,341.68,58.32,348.67Z"/><path class="cls-5" d="M346.53,348.76c0-8.46-.38-16.93.09-25.36.61-10.83,7.43-17,18-17.29,11.38-.27,18.23,5.49,19.68,16.6a47,47,0,0,1,.4,5.92c0,13.47.06,26.95,0,40.42a39,39,0,0,1-.74,8.08c-2.24,10.29-9.21,14.95-21,14.24-9.21-.56-15.75-6.8-16.32-16.63-.5-8.63-.1-17.32-.1-26Zm28.85,0c0-6.46,0-12.93,0-19.4a40.64,40.64,0,0,0-.43-6.53c-1-5.73-4-8.21-9.59-8.18-5.35,0-8.4,2.58-9.42,8.07a26.53,26.53,0,0,0-.45,5q-.06,21.12,0,42.24a27.45,27.45,0,0,0,.57,5.58c1,4.92,4.33,7.48,9.34,7.51,5.19,0,8.43-2.55,9.46-7.7a29.06,29.06,0,0,0,.52-5.27C375.41,363,375.38,355.89,375.38,348.8Z"/><path class="cls-5" d="M396.68,348.76c0-8.45-.38-16.93.09-25.36.61-10.82,7.43-17,18-17.29,11.38-.27,18.24,5.49,19.69,16.59a47,47,0,0,1,.4,5.93c0,13.47.06,26.94,0,40.42a39.07,39.07,0,0,1-.74,8.08c-2.24,10.29-9.21,14.94-21,14.24-9.21-.56-15.75-6.79-16.32-16.62-.5-8.64-.1-17.32-.1-26Zm28.85,0c0-6.67,0-13.35,0-20a35.24,35.24,0,0,0-.43-5.91c-1-5.6-3.93-8.09-9.32-8.14s-8.65,2.5-9.7,8.1a25.19,25.19,0,0,0-.44,4.66q0,21.44,0,42.87a25.94,25.94,0,0,0,.52,5c1.05,5.14,4.29,7.76,9.43,7.77s8.39-2.57,9.43-7.74a27.45,27.45,0,0,0,.51-5C425.56,363.16,425.53,356,425.53,348.76Z"/><path class="cls-6" d="M37.52,334.64H28.79c0-3.46.13-6.78,0-10.08-.35-7-4.13-10.27-11-9.8-4.78.34-7.7,3.54-8.35,9.31a46.49,46.49,0,0,0-.11,5c0,13.79,0,27.58,0,41.37a24.27,24.27,0,0,0,.76,6.18c1.15,4.18,4.4,6.38,8.94,6.4,4.77,0,7.88-2.12,9.05-6.58a27.46,27.46,0,0,0,.69-5.87c.13-3.24.07-6.48.1-9.71,0-.19.16-.37.31-.71H38.1c-.38,5.91-.2,11.81-1.25,17.48-1.79,9.65-8.44,14.15-19,13.8-9.62-.32-15.69-5.5-17.26-14.88A42.42,42.42,0,0,1,0,369.71Q0,348.88.05,328A38.4,38.4,0,0,1,.87,320c2.18-9.61,9.16-14.42,19.73-13.83,9.54.53,15.94,6.63,16.86,16.5C37.83,326.54,37.52,330.51,37.52,334.64Z"/><path class="cls-7" d="M282.88,334.59H274c-.2-3.88-.16-7.63-.63-11.33-.76-6-3.84-8.61-9.53-8.57s-8.7,2.93-9.43,8.78a41.68,41.68,0,0,0-.3,5q0,20.36,0,40.73a41.68,41.68,0,0,0,.3,5c.74,5.78,4,8.81,9.45,8.85s8.7-2.77,9.53-8.69a61.45,61.45,0,0,0,.38-7.18c.06-2.28,0-4.55,0-7h8.74c0,7.78,1.17,15.72-2.9,23.06-3.57,6.47-9.49,8.28-16.41,8.2-6.75-.07-12.5-2.19-15.48-8.59a26.87,26.87,0,0,1-2.62-10.48c-.27-15.66-.37-31.34-.06-47,.37-18.11,14.21-21.22,25.18-18.41,6.86,1.76,10.37,6.9,11.59,13.43C282.66,325,282.55,329.69,282.88,334.59Z"/><path class="cls-4" d="M233.68,329.13h-8.5c-.3-2.63-.39-5.13-.9-7.55-.94-4.5-3.82-6.74-8.4-6.88-5.17-.17-8.18,1.77-9.41,6.4-1.43,5.39-1.07,10.69,2.55,15.14a89.54,89.54,0,0,0,8.31,8.45c3,2.79,6.27,5.23,9.08,8.15,7.81,8.11,9.33,17.67,5.6,28.08-2.35,6.57-7.38,9.87-14.25,10.4a39.87,39.87,0,0,1-5,0c-7.68-.35-13.19-4.3-15.18-11.7-1.16-4.35-1.29-9-1.92-13.74H205c0,2.52-.15,4.91,0,7.28.57,7.56,5.82,11.3,12.93,9.39a7.67,7.67,0,0,0,5.61-5.38c1.62-5.32,1.64-10.69-1.91-15.23-2.67-3.42-6-6.29-9.09-9.41-4.08-4.15-8.76-7.86-12.1-12.53-5.47-7.68-5.09-16.38-1.5-24.77,3-7,10.14-10.13,18.9-9,9.67,1.19,15,7.35,15.81,18.22C233.77,325.89,233.68,327.36,233.68,329.13Z"/><path class="cls-6" d="M151.17,307h34.09v8.4H160.52V344h20v8.39H160.58v29.76h24.74v8.32H151.17Z"/><path class="cls-8" d="M456.62,382.23h23.83v8.21h-32.9V307.07h9.07Z"/><path class="cls-2" d="M240,30.32l48.63,48.8-48.86,48.42L191.12,79.27Z"/></g></g></svg>