<svg xmlns="http://www.w3.org/2000/svg" viewBox="0 0 460.15 67.08"><defs><style>.cls-1{fill:#1d1d1b;}</style></defs><g id="Capa_2" data-name="Capa 2"><g id="Capa_1-2" data-name="Capa 1"><path class="cls-1" d="M162.42,66.46V.6c6.85.31,13.65.12,20.28,1.08,6,.86,9.65,6.11,9.79,13.23.24,12.58.32,25.17,0,37.74-.25,9-5.69,13.76-14.72,13.8C172.7,66.48,167.64,66.46,162.42,66.46Zm7.36-6.71H176c7,0,9.33-2.33,9.37-9.42,0-6,0-12.09,0-18.13,0-5.63.06-11.27-.08-16.9-.12-4.41-2.37-7.21-6.18-7.56-3-.28-6.15,0-9.29,0Z"/><path class="cls-1" d="M338.08,1.06h7.33V66.27h-7.18V37.13H322.18V66.31h-7.3V1.05H322V30.27h16.07Z"/><path class="cls-1" d="M152.46,33.59c0,6.93.46,13.9-.12,20.79-.72,8.48-6.34,12.84-15,12.7-8.44-.15-14-4.83-14.3-13.22-.44-13-.2-26.11-.21-39.17a15.4,15.4,0,0,1,.55-3.62Q126.18-.29,138.83.29c7.5.32,12.86,4.76,13.46,12.27.55,7,.12,14,.12,21Zm-22.58,0c0,4.58,0,9.15,0,13.73a45.26,45.26,0,0,0,.35,6.59c.69,4.41,3.27,6.57,7.45,6.57s6.64-2.12,7.43-6.58a20.38,20.38,0,0,0,.32-3.65q0-16.55,0-33.1a22.89,22.89,0,0,0-.44-4.37c-.8-3.9-3.22-5.76-7.33-5.75s-6.54,1.9-7.34,5.76a23.83,23.83,0,0,0-.44,4.38C129.85,22.64,129.88,28.12,129.88,33.59Z"/><path class="cls-1" d="M355.37,33.66c0-6.62-.29-13.25.07-19.84.48-8.47,5.82-13.34,14.1-13.53,8.9-.21,14.27,4.29,15.4,13a36.16,36.16,0,0,1,.31,4.64q0,15.81,0,31.62a30.5,30.5,0,0,1-.58,6.33c-1.76,8-7.21,11.69-16.41,11.13-7.21-.43-12.32-5.31-12.77-13-.39-6.76-.08-13.55-.08-20.33Zm22.57,0c0-5.06,0-10.12,0-15.18a31.2,31.2,0,0,0-.34-5.11c-.78-4.48-3.14-6.42-7.5-6.4-4.19,0-6.57,2-7.37,6.31a21.16,21.16,0,0,0-.35,3.89q0,16.53,0,33.05a21.22,21.22,0,0,0,.44,4.36c.82,3.85,3.39,5.86,7.31,5.88s6.59-2,7.4-6a22.75,22.75,0,0,0,.41-4.12C378,44.79,377.94,39.24,377.94,33.69Z"/><path class="cls-1" d="M394.61,33.66c0-6.62-.3-13.25.07-19.84C395.15,5.35,400.49.48,408.77.29c8.9-.21,14.27,4.29,15.41,13a37.93,37.93,0,0,1,.31,4.64c0,10.54,0,21.08,0,31.62a30.35,30.35,0,0,1-.58,6.32c-1.75,8.06-7.2,11.7-16.4,11.14-7.21-.43-12.32-5.31-12.77-13-.39-6.75-.08-13.55-.08-20.33Zm22.57,0c0-5.22,0-10.44,0-15.67a27.47,27.47,0,0,0-.33-4.62C416,9,413.75,7,409.54,7s-6.77,2-7.6,6.34A20.32,20.32,0,0,0,401.6,17q0,16.77,0,33.54A20.1,20.1,0,0,0,402,54.4c.82,4,3.36,6.08,7.38,6.09s6.56-2,7.37-6.06a20.19,20.19,0,0,0,.4-3.88C417.2,44.92,417.18,39.29,417.18,33.66Z"/><path class="cls-1" d="M113.61,22.61h-6.83c0-2.7.11-5.3,0-7.88-.28-5.45-3.23-8-8.57-7.67-3.75.26-6,2.77-6.54,7.28a36.64,36.64,0,0,0-.09,3.92c0,10.79,0,21.58,0,32.37a18.27,18.27,0,0,0,.6,4.83c.89,3.27,3.44,5,7,5,3.74,0,6.17-1.66,7.09-5.15a22,22,0,0,0,.54-4.59c.1-2.53,0-5.07.08-7.6,0-.14.12-.28.24-.55h6.95c-.3,4.62-.16,9.24-1,13.68-1.4,7.54-6.61,11.07-14.84,10.79-7.53-.25-12.27-4.3-13.5-11.64a33.15,33.15,0,0,1-.46-5.36q-.06-16.3,0-32.61a29.09,29.09,0,0,1,.64-6.32C86.64,3.6,92.1-.16,100.38.3c7.46.41,12.46,5.19,13.18,12.91C113.85,16.27,113.61,19.38,113.61,22.61Z"/><path class="cls-1" d="M305.58,22.57h-7c-.16-3-.13-6-.49-8.86-.6-4.69-3-6.73-7.46-6.71s-6.8,2.3-7.38,6.87a31.93,31.93,0,0,0-.23,3.91q0,15.95,0,31.87a30,30,0,0,0,.24,3.91c.57,4.53,3.14,6.9,7.39,6.93s6.8-2.17,7.46-6.81a50,50,0,0,0,.29-5.61c.05-1.78,0-3.56,0-5.47h6.84c0,6.09.92,12.3-2.26,18-2.8,5.06-7.43,6.48-12.84,6.42s-9.78-1.72-12.11-6.72a20.84,20.84,0,0,1-2.05-8.2c-.22-12.26-.29-24.52,0-36.78C276.26,1.2,287.09-1.23,295.67,1c5.37,1.38,8.11,5.4,9.07,10.51C305.4,15,305.31,18.74,305.58,22.57Z"/><path class="cls-1" d="M267.08,18.3h-6.65c-.23-2.05-.3-4-.7-5.91-.74-3.52-3-5.27-6.58-5.38-4-.13-6.39,1.38-7.36,5-1.11,4.21-.84,8.36,2,11.85a69.89,69.89,0,0,0,6.5,6.61c2.31,2.18,4.9,4.09,7.1,6.37,6.11,6.35,7.31,13.82,4.39,22C263.94,64,260,66.54,254.62,67a31.88,31.88,0,0,1-3.91,0c-6-.28-10.32-3.37-11.88-9.16-.91-3.4-1-7-1.5-10.74h7.3c0,2-.11,3.84,0,5.69.45,5.92,4.55,8.84,10.11,7.35a6,6,0,0,0,4.39-4.22c1.27-4.15,1.29-8.36-1.49-11.9a91.45,91.45,0,0,0-7.11-7.37c-3.19-3.24-6.86-6.15-9.46-9.8-4.29-6-4-12.82-1.18-19.38C242.24,2,247.84-.46,254.69.38c7.57.94,11.77,5.75,12.38,14.26C267.15,15.77,267.08,16.91,267.08,18.3Z"/><path class="cls-1" d="M202.53,1H229.2V7.57H209.85V29.92H225.5v6.57H209.89V59.77h19.36v6.51H202.53Z"/><path class="cls-1" d="M441.5,59.85h18.65v6.41H434.41V1h7.09Z"/><path class="cls-1" d="M58.6,25l8.54,8.51L33.58,67.07,0,33.49,8.51,25l25,25.08Z"/><path class="cls-1" d="M13,20.59,33.6,0,54.24,20.64,33.65,41.21ZM33.55,5.41,18.2,20.81,33.55,36.12,48.9,20.82Z"/><path class="cls-1" d="M33.64,8,46.47,20.88,33.58,33.66,20.75,20.92Z"/></g></g></svg>