<svg xmlns="http://www.w3.org/2000/svg" viewBox="0 0 480.45 85.46"><defs><style>.cls-1{fill:#eb5d20;}.cls-2{fill:#1d4c9c;}.cls-3{fill:#1e4c9c;}.cls-4{fill:#eb5c1f;}.cls-5{fill:#1c4b9b;}.cls-6{fill:#224e9d;}</style></defs><g id="Capa_2" data-name="Capa 2"><g id="Capa_1-2" data-name="Capa 1"><path class="cls-1" d="M99.9,84.66V.49c8.76.4,17.45.15,25.93,1.37,7.63,1.11,12.34,7.82,12.51,16.92.31,16.08.41,32.17,0,48.24C138,78.54,131.05,84.6,119.5,84.66,113,84.69,106.58,84.66,99.9,84.66Zm9.41-8.57h7.89c8.94,0,11.92-3,12-12,0-7.72,0-15.45,0-23.17,0-7.2.08-14.41-.11-21.61-.14-5.62-3-9.21-7.9-9.66-3.89-.35-7.85-.07-11.87-.07Z"/><path class="cls-2" d="M324.43,1.08h9.37V84.42h-9.18V47.18H304.1V84.47h-9.33V1.06h9.11V38.4h20.55Z"/><path class="cls-1" d="M87.17,42.66c0,8.86.59,17.77-.15,26.56-.92,10.85-8.1,16.42-19.2,16.23C57,85.27,49.91,79.29,49.55,68.56c-.57-16.67-.26-33.38-.27-50.07A19.23,19.23,0,0,1,50,13.87C52.38,4.19,59-.38,69.76.09,79.35.5,86.19,6.17,87,15.77c.71,8.91.15,17.92.15,26.88Zm-28.85,0c0,5.85,0,11.7,0,17.54a59,59,0,0,0,.45,8.42C59.67,74.26,63,77,68.31,77s8.49-2.71,9.5-8.41a27,27,0,0,0,.41-4.67q0-21.15,0-42.3a28.42,28.42,0,0,0-.56-5.59c-1-5-4.12-7.35-9.36-7.35s-8.36,2.44-9.38,7.37a29.21,29.21,0,0,0-.57,5.59C58.28,28.66,58.32,35.66,58.32,42.66Z"/><path class="cls-3" d="M346.53,42.74c0-8.46-.38-16.93.09-25.36.61-10.82,7.43-17,18-17.29,11.38-.27,18.23,5.49,19.68,16.6a47,47,0,0,1,.4,5.92c0,13.48.06,27,0,40.42a39,39,0,0,1-.74,8.08c-2.24,10.3-9.21,15-21,14.24-9.21-.55-15.75-6.79-16.32-16.62-.5-8.64-.1-17.32-.1-26Zm28.85,0c0-6.46,0-12.93,0-19.4a40.64,40.64,0,0,0-.43-6.53c-1-5.73-4-8.21-9.59-8.18-5.35,0-8.4,2.58-9.42,8.07a26.61,26.61,0,0,0-.45,5q-.06,21.12,0,42.25a27.52,27.52,0,0,0,.57,5.58c1,4.91,4.33,7.48,9.34,7.5,5.19,0,8.43-2.54,9.46-7.7a29.06,29.06,0,0,0,.52-5.27C375.41,57,375.38,49.88,375.38,42.78Z"/><path class="cls-3" d="M396.68,42.74c0-8.45-.38-16.93.09-25.36.61-10.82,7.43-17,18-17.29C426.16-.18,433,5.58,434.47,16.68a47,47,0,0,1,.4,5.93c0,13.47.06,27,0,40.42a39,39,0,0,1-.74,8.08c-2.24,10.29-9.21,15-21,14.24-9.21-.55-15.75-6.79-16.32-16.62-.5-8.63-.1-17.32-.1-26Zm28.85,0c0-6.67,0-13.35,0-20a35.39,35.39,0,0,0-.43-5.91c-1-5.6-3.93-8.09-9.32-8.14s-8.65,2.5-9.7,8.11a25,25,0,0,0-.44,4.65q0,21.43,0,42.87a25.86,25.86,0,0,0,.52,5c1.05,5.14,4.29,7.76,9.43,7.77S424,74.46,425,69.29a27.43,27.43,0,0,0,.51-5C425.56,57.14,425.53,49.94,425.53,42.74Z"/><path class="cls-4" d="M37.52,28.62H28.79c0-3.46.13-6.77,0-10.08-.35-7-4.13-10.27-11-9.79-4.78.33-7.7,3.53-8.35,9.31a46.25,46.25,0,0,0-.11,5c0,13.79,0,27.58,0,41.37a24.17,24.17,0,0,0,.76,6.18c1.15,4.18,4.4,6.38,8.94,6.41,4.77,0,7.88-2.13,9.05-6.59a27.46,27.46,0,0,0,.69-5.87c.13-3.24.07-6.48.1-9.71,0-.19.16-.37.31-.71H38.1c-.38,5.91-.2,11.81-1.25,17.49-1.79,9.64-8.44,14.15-19,13.8C8.27,85.11,2.2,79.92.63,70.54A42.42,42.42,0,0,1,0,63.69Q0,42.86.05,22a38.24,38.24,0,0,1,.82-8.07C3.05,4.32,10-.49,20.6.1c9.54.53,15.94,6.63,16.86,16.51C37.83,20.52,37.52,24.5,37.52,28.62Z"/><path class="cls-5" d="M282.88,28.57H274c-.2-3.88-.16-7.63-.63-11.32-.76-6-3.84-8.61-9.53-8.58s-8.7,2.94-9.43,8.78a41.68,41.68,0,0,0-.3,5q0,20.37,0,40.74a41.64,41.64,0,0,0,.3,5c.74,5.78,4,8.82,9.45,8.85s8.7-2.77,9.53-8.69a61.45,61.45,0,0,0,.38-7.18c.06-2.27,0-4.55,0-7h8.74c0,7.78,1.17,15.72-2.9,23.06-3.57,6.47-9.49,8.28-16.41,8.2-6.75-.07-12.5-2.19-15.48-8.58a26.92,26.92,0,0,1-2.62-10.49c-.27-15.66-.37-31.34-.06-47C245.41,1.25,259.25-1.86,270.22,1c6.86,1.76,10.37,6.9,11.59,13.43C282.66,18.93,282.55,23.67,282.88,28.57Z"/><path class="cls-2" d="M233.68,23.11h-8.5c-.3-2.63-.39-5.13-.9-7.55-.94-4.5-3.82-6.74-8.4-6.88-5.17-.17-8.18,1.77-9.41,6.4C205,20.47,205.4,25.77,209,30.23a92,92,0,0,0,8.31,8.45c3,2.79,6.27,5.22,9.08,8.14,7.81,8.11,9.33,17.67,5.6,28.08-2.35,6.57-7.38,9.87-14.25,10.41a41.86,41.86,0,0,1-5,0C205.07,85,199.56,81,197.57,73.64c-1.16-4.35-1.29-9-1.92-13.74H205c0,2.53-.15,4.91,0,7.28.57,7.56,5.82,11.3,12.93,9.39a7.67,7.67,0,0,0,5.61-5.38c1.62-5.32,1.64-10.69-1.91-15.22-2.67-3.42-6-6.3-9.09-9.42-4.08-4.14-8.76-7.85-12.1-12.53C195,26.34,195.36,17.65,199,9.26c3-7,10.14-10.13,18.9-9,9.67,1.19,15,7.35,15.81,18.22C233.77,19.88,233.68,21.34,233.68,23.11Z"/><path class="cls-4" d="M151.17,1h34.09V9.4H160.52V38h20v8.39H160.58V76.11h24.74v8.32H151.17Z"/><path class="cls-6" d="M456.62,76.22h23.83v8.2h-32.9V1.05h9.07Z"/></g></g></svg>