<svg id="visual" viewBox="0 0 900 600" width="900" height="600" xmlns="http://www.w3.org/2000/svg" xmlns:xlink="http://www.w3.org/1999/xlink" version="1.1"><g><g transform="translate(71 517)"><path d="M0 -65.7L56.9 -32.8L56.9 32.8L0 65.7L-56.9 32.8L-56.9 -32.8Z" fill="#424242"></path></g><g transform="translate(505 456)"><path d="M0 -50L43.3 -25L43.3 25L0 50L-43.3 25L-43.3 -25Z" fill="#424242"></path></g><g transform="translate(740 249)"><path d="M0 -56L48.5 -28L48.5 28L0 56L-48.5 28L-48.5 -28Z" fill="#424242"></path></g><g transform="translate(376 213)"><path d="M0 -34L29.4 -17L29.4 17L0 34L-29.4 17L-29.4 -17Z" fill="#424242"></path></g><g transform="translate(571 313)"><path d="M0 -41L35.5 -20.5L35.5 20.5L0 41L-35.5 20.5L-35.5 -20.5Z" fill="#424242"></path></g><g transform="translate(173 164)"><path d="M0 -45L39 -22.5L39 22.5L0 45L-39 22.5L-39 -22.5Z" fill="#424242"></path></g><g transform="translate(717 493)"><path d="M0 -51L44.2 -25.5L44.2 25.5L0 51L-44.2 25.5L-44.2 -25.5Z" fill="#424242"></path></g><g transform="translate(286 491)"><path d="M0 -35L30.3 -17.5L30.3 17.5L0 35L-30.3 17.5L-30.3 -17.5Z" fill="#424242"></path></g></g></svg>