<svg xmlns="http://www.w3.org/2000/svg" viewBox="0 0 460.1 67.1"><defs><style>.cls-1{fill:#fff;}.cls-2{fill:#eb5d20;}.cls-3{fill:#ea5a1d;}</style></defs><g id="Capa_2" data-name="Capa 2"><g id="Capa_1-2" data-name="Capa 1"><path class="cls-1" d="M162.4,66.5V.6c6.9.3,13.7.1,20.3,1.1s9.7,6.1,9.8,13.2c.2,12.6.3,25.2,0,37.8-.3,9-5.7,13.7-14.8,13.8Zm7.4-6.8h6.1c7,0,9.4-2.3,9.4-9.4s0-12.1,0-18.1.1-11.3-.1-16.9-2.3-7.2-6.1-7.6-6.2,0-9.3,0Z"/><path class="cls-2" d="M338.1,1.1h7.3V66.3h-7.2V37.1h-16V66.3h-7.3V1H322V30.3h16.1Z"/><path class="cls-1" d="M152.5,33.6c0,6.9.4,13.9-.2,20.8-.7,8.5-6.3,12.8-15,12.7s-14-4.8-14.3-13.2c-.4-13.1-.2-26.2-.2-39.2a15.1,15.1,0,0,1,.6-3.6c1.8-7.6,7-11.2,15.4-10.8S151.7,5,152.3,12.6s.1,14,.1,21Zm-22.6,0c0,4.6-.1,9.1,0,13.7a36.6,36.6,0,0,0,.4,6.6c.6,4.4,3.2,6.6,7.4,6.6s6.6-2.1,7.4-6.6a22.1,22.1,0,0,0,.4-3.7c0-11,0-22-.1-33a21.2,21.2,0,0,0-.4-4.4c-.8-3.9-3.2-5.8-7.3-5.8s-6.6,1.9-7.4,5.8a21.2,21.2,0,0,0-.4,4.4Z"/><path class="cls-2" d="M355.4,33.7c0-6.7-.3-13.3,0-19.9C355.9,5.3,361.3.5,369.5.3s14.3,4.3,15.4,13c.2,1.5.3,3.1.4,4.6,0,10.6,0,21.1-.1,31.6a34.5,34.5,0,0,1-.5,6.4c-1.8,8-7.3,11.6-16.4,11.1-7.3-.4-12.4-5.3-12.8-13s-.1-13.6-.1-20.3Zm22.5,0c0-5.1.1-10.1,0-15.2a29.1,29.1,0,0,0-.3-5.1c-.8-4.5-3.1-6.4-7.5-6.4s-6.6,2-7.4,6.3a25.6,25.6,0,0,0-.3,3.9q-.1,16.5,0,33a21.2,21.2,0,0,0,.4,4.4c.8,3.9,3.4,5.9,7.3,5.9s6.6-2,7.4-6a19.9,19.9,0,0,0,.4-4.2C378,44.8,377.9,39.2,377.9,33.7Z"/><path class="cls-2" d="M394.6,33.7c0-6.7-.3-13.3.1-19.9C395.2,5.3,400.5.5,408.8.3s14.2,4.3,15.4,13a35.5,35.5,0,0,1,.3,4.6V49.5a34.7,34.7,0,0,1-.6,6.4c-1.8,8-7.2,11.6-16.4,11.1-7.2-.4-12.3-5.3-12.8-13s-.1-13.6-.1-20.3Zm22.6,0V18a23.8,23.8,0,0,0-.4-4.6C416,9,413.8,7,409.5,7s-6.7,2-7.6,6.3a23.1,23.1,0,0,0-.3,3.7V50.5a17.2,17.2,0,0,0,.4,3.9c.8,4,3.4,6.1,7.4,6.1s6.6-2,7.4-6.1a24.5,24.5,0,0,0,.4-3.8Z"/><path class="cls-1" d="M113.6,22.6h-6.8c0-2.7.1-5.3,0-7.9-.3-5.4-3.3-8-8.6-7.6-3.8.2-6,2.7-6.5,7.2a26.7,26.7,0,0,0-.1,4c0,10.8-.1,21.5,0,32.3a20.5,20.5,0,0,0,.6,4.9c.9,3.2,3.4,5,7,5s6.1-1.7,7.1-5.2a34.1,34.1,0,0,0,.5-4.6c.1-2.5,0-5,.1-7.6a1.7,1.7,0,0,1,.2-.5h7c-.3,4.6-.2,9.2-1,13.7-1.4,7.5-6.6,11-14.8,10.8S86,62.7,84.7,55.4a49,49,0,0,1-.4-5.4c0-10.8-.1-21.7,0-32.6a33.6,33.6,0,0,1,.6-6.3C86.6,3.6,92.1-.2,100.4.3s12.4,5.2,13.2,12.9C113.9,16.3,113.6,19.4,113.6,22.6Z"/><path class="cls-2" d="M305.6,22.6h-7a85.3,85.3,0,0,0-.5-8.9c-.6-4.7-3-6.7-7.4-6.7s-6.8,2.3-7.4,6.9a25.5,25.5,0,0,0-.2,3.9c-.1,10.6-.1,21.2,0,31.9a25.5,25.5,0,0,0,.2,3.9c.6,4.5,3.1,6.9,7.4,6.9s6.8-2.2,7.4-6.8a35.7,35.7,0,0,0,.3-5.6c.1-1.8,0-3.6,0-5.5h6.9c0,6.1.9,12.3-2.3,18s-7.4,6.5-12.8,6.5-9.8-1.8-12.1-6.8a21.2,21.2,0,0,1-2.1-8.2c-.2-12.2-.3-24.5,0-36.7C276.3,1.2,287.1-1.2,295.7,1c5.3,1.3,8.1,5.4,9,10.5C305.4,15,305.3,18.7,305.6,22.6Z"/><path class="cls-2" d="M267.1,18.3h-6.7a53,53,0,0,0-.7-5.9c-.7-3.5-3-5.3-6.5-5.4s-6.4,1.4-7.4,5-.8,8.4,2,11.9a57.8,57.8,0,0,0,6.5,6.6c2.3,2.2,4.9,4.1,7.1,6.3,6.1,6.4,7.3,13.9,4.4,22-1.9,5.2-5.8,7.7-11.2,8.2h-3.9c-6-.3-10.3-3.4-11.9-9.2-.9-3.4-1-7-1.5-10.7h7.3a53.7,53.7,0,0,0,.1,5.7c.4,5.9,4.5,8.8,10.1,7.3a6.2,6.2,0,0,0,4.4-4.2c1.2-4.1,1.2-8.3-1.5-11.9s-4.8-4.9-7.2-7.4-6.8-6.1-9.4-9.8c-4.3-6-4-12.8-1.2-19.3s7.9-8,14.8-7.1,11.8,5.7,12.4,14.2Z"/><path class="cls-1" d="M202.5,1h26.7V7.6H209.8V29.9h15.7v6.6H209.9V59.8h19.3v6.5H202.5Z"/><path class="cls-2" d="M441.5,59.8h18.6v6.5H434.4V1h7.1Z"/><path class="cls-1" d="M58.6,25l8.5,8.5L33.6,67.1,0,33.5,8.5,25l25,25.1Z"/><path class="cls-3" d="M13,20.6,33.6,0,54.2,20.6,33.6,41.2ZM33.6,5.4c-5.2,5.1-10.3,10.3-15.4,15.4L33.6,36.1,48.9,20.8Z"/><path class="cls-3" d="M33.6,8,46.5,20.9c-4.3,4.2-8.7,8.5-12.9,12.8L20.7,20.9Z"/></g></g></svg>